# Blender 3.3.1
# www.blender.org
mtllib CGYV_S14_BlenderObj03.mtl
o Cono
v 0.000000 0.260140 -0.232215
v -0.045303 0.260140 -0.227753
v -0.088865 0.260140 -0.214538
v -0.129011 0.260140 -0.193079
v -0.164200 0.260140 -0.164200
v -0.193079 0.260140 -0.129011
v -0.214538 0.260140 -0.088865
v -0.227753 0.260140 -0.045303
v -0.232215 0.260140 0.000000
v -0.227753 0.260140 0.045303
v -0.214538 0.260140 0.088865
v -0.193079 0.260140 0.129011
v -0.164200 0.260140 0.164200
v -0.129011 0.260140 0.193079
v -0.088865 0.260140 0.214538
v -0.045303 0.260140 0.227753
v 0.000000 0.260140 0.232215
v 0.045303 0.260140 0.227753
v 0.088865 0.260140 0.214538
v 0.129012 0.260140 0.193079
v 0.164201 0.260140 0.164200
v 0.193079 0.260140 0.129011
v 0.214538 0.260140 0.088865
v 0.227753 0.260140 0.045303
v 0.232215 0.260140 0.000000
v 0.227753 0.260140 -0.045303
v 0.214538 0.260140 -0.088865
v 0.193079 0.260140 -0.129011
v 0.164201 0.260140 -0.164200
v 0.129012 0.260140 -0.193079
v 0.088865 0.260140 -0.214538
v 0.045303 0.260140 -0.227753
v -0.000000 -0.260140 0.000000
vn -0.0896 -0.4059 -0.9095
vn -0.2653 -0.4059 -0.8745
vn -0.4308 -0.4059 -0.8060
vn -0.5798 -0.4059 -0.7065
vn -0.7065 -0.4059 -0.5798
vn -0.8060 -0.4059 -0.4308
vn -0.8745 -0.4059 -0.2653
vn -0.9095 -0.4059 -0.0896
vn -0.9095 -0.4059 0.0896
vn -0.8745 -0.4059 0.2653
vn -0.8060 -0.4059 0.4308
vn -0.7065 -0.4059 0.5798
vn -0.5798 -0.4059 0.7065
vn -0.4308 -0.4059 0.8060
vn -0.2653 -0.4059 0.8745
vn -0.0896 -0.4059 0.9095
vn 0.0896 -0.4059 0.9095
vn 0.2653 -0.4059 0.8745
vn 0.4308 -0.4059 0.8060
vn 0.5798 -0.4059 0.7065
vn 0.7065 -0.4059 0.5798
vn 0.8060 -0.4059 0.4308
vn 0.8745 -0.4059 0.2653
vn 0.9095 -0.4059 0.0896
vn 0.9095 -0.4059 -0.0896
vn 0.8745 -0.4059 -0.2653
vn 0.8060 -0.4059 -0.4308
vn 0.7065 -0.4059 -0.5798
vn 0.5798 -0.4059 -0.7065
vn 0.4308 -0.4059 -0.8060
vn -0.0000 1.0000 -0.0000
vn 0.2653 -0.4059 -0.8745
vn 0.0896 -0.4059 -0.9095
vt 0.750000 0.490000
vt 0.250000 0.490000
vt 0.296822 0.485388
vt 0.796822 0.485388
vt 0.341844 0.471731
vt 0.841844 0.471731
vt 0.383337 0.449553
vt 0.883337 0.449553
vt 0.419706 0.419706
vt 0.919706 0.419706
vt 0.449553 0.383337
vt 0.949553 0.383337
vt 0.471731 0.341844
vt 0.971731 0.341844
vt 0.485388 0.296822
vt 0.985388 0.296822
vt 0.490000 0.250000
vt 0.990000 0.250000
vt 0.485388 0.203178
vt 0.985388 0.203178
vt 0.471731 0.158156
vt 0.971731 0.158156
vt 0.449553 0.116663
vt 0.949553 0.116663
vt 0.419706 0.080294
vt 0.919706 0.080294
vt 0.383337 0.050447
vt 0.883337 0.050447
vt 0.341844 0.028269
vt 0.841844 0.028269
vt 0.296822 0.014612
vt 0.796822 0.014612
vt 0.250000 0.010000
vt 0.750000 0.010000
vt 0.203178 0.014612
vt 0.703178 0.014612
vt 0.158156 0.028269
vt 0.658156 0.028269
vt 0.116663 0.050447
vt 0.616663 0.050447
vt 0.080294 0.080294
vt 0.580294 0.080294
vt 0.050447 0.116663
vt 0.550447 0.116663
vt 0.028269 0.158156
vt 0.528269 0.158156
vt 0.014612 0.203178
vt 0.514612 0.203178
vt 0.010000 0.250000
vt 0.510000 0.250000
vt 0.014612 0.296822
vt 0.514612 0.296822
vt 0.028269 0.341844
vt 0.528269 0.341844
vt 0.050447 0.383337
vt 0.550447 0.383337
vt 0.080294 0.419706
vt 0.580294 0.419706
vt 0.116663 0.449553
vt 0.616663 0.449553
vt 0.658156 0.471731
vt 0.158156 0.471731
vt 0.703178 0.485388
vt 0.203178 0.485388
vt 0.250000 0.250000
s 0
f 1/2/1 33/65/1 2/3/1
f 2/3/2 33/65/2 3/5/2
f 3/5/3 33/65/3 4/7/3
f 4/7/4 33/65/4 5/9/4
f 5/9/5 33/65/5 6/11/5
f 6/11/6 33/65/6 7/13/6
f 7/13/7 33/65/7 8/15/7
f 8/15/8 33/65/8 9/17/8
f 9/17/9 33/65/9 10/19/9
f 10/19/10 33/65/10 11/21/10
f 11/21/11 33/65/11 12/23/11
f 12/23/12 33/65/12 13/25/12
f 13/25/13 33/65/13 14/27/13
f 14/27/14 33/65/14 15/29/14
f 15/29/15 33/65/15 16/31/15
f 16/31/16 33/65/16 17/33/16
f 17/33/17 33/65/17 18/35/17
f 18/35/18 33/65/18 19/37/18
f 19/37/19 33/65/19 20/39/19
f 20/39/20 33/65/20 21/41/20
f 21/41/21 33/65/21 22/43/21
f 22/43/22 33/65/22 23/45/22
f 23/45/23 33/65/23 24/47/23
f 24/47/24 33/65/24 25/49/24
f 25/49/25 33/65/25 26/51/25
f 26/51/26 33/65/26 27/53/26
f 27/53/27 33/65/27 28/55/27
f 28/55/28 33/65/28 29/57/28
f 29/57/29 33/65/29 30/59/29
f 30/59/30 33/65/30 31/62/30
f 1/1/31 2/4/31 3/6/31 4/8/31 5/10/31 6/12/31 7/14/31 8/16/31 9/18/31 10/20/31 11/22/31 12/24/31 13/26/31 14/28/31 15/30/31 16/32/31 17/34/31 18/36/31 19/38/31 20/40/31 21/42/31 22/44/31 23/46/31 24/48/31 25/50/31 26/52/31 27/54/31 28/56/31 29/58/31 30/60/31 31/61/31 32/63/31
f 31/62/32 33/65/32 32/64/32
f 32/64/33 33/65/33 1/2/33
o Esfera_geodésica
v 0.000000 0.067881 0.000000
v 0.159864 0.190005 0.116147
v -0.061061 0.190005 0.187931
v -0.197603 0.190006 0.000000
v -0.061061 0.190005 -0.187931
v 0.159864 0.190005 -0.116147
v 0.061061 0.387611 0.187931
v -0.159864 0.387611 0.116147
v -0.159864 0.387611 -0.116147
v 0.061061 0.387611 -0.187931
v 0.197603 0.387610 0.000000
v 0.000000 0.509735 0.000000
v -0.035891 0.100876 0.110462
v 0.093965 0.100876 0.068269
v 0.058075 0.172659 0.178732
v 0.187931 0.172659 0.000000
v 0.093965 0.100876 -0.068269
v -0.116148 0.100876 0.000000
v -0.152039 0.172659 0.110463
v -0.035891 0.100876 -0.110462
v -0.152039 0.172659 -0.110463
v 0.058075 0.172659 -0.178732
v 0.210114 0.288808 0.068269
v 0.210114 0.288808 -0.068269
v 0.000000 0.288808 0.220927
v 0.129857 0.288808 0.178733
v -0.210114 0.288808 0.068269
v -0.129857 0.288808 0.178733
v -0.129857 0.288808 -0.178733
v -0.210114 0.288808 -0.068269
v 0.129857 0.288808 -0.178733
v 0.000000 0.288808 -0.220927
v 0.152039 0.404957 0.110463
v -0.058075 0.404957 0.178732
v -0.187931 0.404957 0.000000
v -0.058075 0.404957 -0.178732
v 0.152039 0.404957 -0.110463
v 0.035891 0.476740 0.110462
v 0.116148 0.476740 0.000000
v -0.093965 0.476740 0.068269
v -0.093965 0.476740 -0.068269
v 0.035891 0.476740 -0.110462
vn 0.1024 -0.9435 0.3151
vn 0.7002 -0.6617 0.2680
vn -0.2680 -0.9435 0.1947
vn -0.2680 -0.9435 -0.1947
vn 0.1024 -0.9435 -0.3151
vn 0.9050 -0.3304 0.2680
vn 0.0247 -0.3304 0.9435
vn -0.8897 -0.3304 0.3151
vn -0.5746 -0.3304 -0.7488
vn 0.5346 -0.3304 -0.7779
vn 0.8026 -0.1256 0.5831
vn -0.3066 -0.1256 0.9435
vn -0.9921 -0.1256 -0.0000
vn -0.3066 -0.1256 -0.9435
vn 0.8026 -0.1256 -0.5831
vn 0.4089 0.6617 0.6284
vn -0.4713 0.6617 0.5831
vn -0.7002 0.6617 -0.2680
vn 0.0385 0.6617 -0.7488
vn 0.7240 0.6617 -0.1947
vn 0.2680 0.9435 -0.1947
vn 0.4911 0.7947 -0.3568
vn 0.4089 0.6617 -0.6284
vn -0.1024 0.9435 -0.3151
vn -0.1876 0.7947 -0.5773
vn -0.4713 0.6617 -0.5831
vn -0.3313 0.9435 -0.0000
vn -0.6071 0.7947 -0.0000
vn -0.7002 0.6617 0.2680
vn -0.1024 0.9435 0.3151
vn -0.1876 0.7947 0.5773
vn 0.0385 0.6617 0.7488
vn 0.2680 0.9435 0.1947
vn 0.4911 0.7947 0.3568
vn 0.7240 0.6617 0.1947
vn 0.8897 0.3304 -0.3151
vn 0.7947 0.1876 -0.5773
vn 0.5746 0.3304 -0.7488
vn -0.0247 0.3304 -0.9435
vn -0.3035 0.1876 -0.9342
vn -0.5346 0.3304 -0.7779
vn -0.9050 0.3304 -0.2680
vn -0.9822 0.1876 -0.0000
vn -0.9050 0.3304 0.2680
vn -0.5346 0.3304 0.7779
vn -0.3035 0.1876 0.9342
vn -0.0247 0.3304 0.9435
vn 0.5746 0.3304 0.7488
vn 0.7947 0.1876 0.5773
vn 0.8897 0.3304 0.3151
vn 0.3066 0.1256 -0.9435
vn 0.3035 -0.1876 -0.9342
vn 0.0247 -0.3304 -0.9435
vn -0.8026 0.1256 -0.5831
vn -0.7947 -0.1876 -0.5773
vn -0.8897 -0.3304 -0.3151
vn -0.8026 0.1256 0.5831
vn -0.7947 -0.1876 0.5773
vn -0.5746 -0.3304 0.7488
vn 0.3066 0.1256 0.9435
vn 0.3035 -0.1876 0.9342
vn 0.5346 -0.3304 0.7779
vn 0.9921 0.1256 -0.0000
vn 0.9822 -0.1876 -0.0000
vn 0.9050 -0.3304 -0.2680
vn 0.4713 -0.6617 -0.5831
vn 0.1876 -0.7947 -0.5773
vn -0.0385 -0.6617 -0.7488
vn -0.4089 -0.6617 -0.6284
vn -0.4911 -0.7947 -0.3568
vn -0.7240 -0.6617 -0.1947
vn -0.7240 -0.6617 0.1947
vn -0.4911 -0.7947 0.3568
vn -0.4089 -0.6617 0.6284
vn 0.7002 -0.6617 -0.2680
vn 0.6071 -0.7947 -0.0000
vn 0.3313 -0.9435 -0.0000
vn -0.0385 -0.6617 0.7488
vn 0.1876 -0.7947 0.5773
vn 0.4713 -0.6617 0.5831
vt 0.181819 0.000000
vt 0.909091 0.000000
vt 0.727273 0.000000
vt 0.545455 0.000000
vt 0.363637 0.000000
vt 0.272728 0.157461
vt 1.000000 0.157461
vt 0.090910 0.157461
vt 0.818182 0.157461
vt 0.636364 0.157461
vt 0.454546 0.157461
vt 0.181819 0.314921
vt 0.000000 0.314921
vt 0.909091 0.314921
vt 0.727273 0.314921
vt 0.545455 0.314921
vt 0.363637 0.314921
vt 0.454546 0.472382
vt 0.636364 0.472382
vt 0.818182 0.472382
vt 0.090910 0.472382
vt 0.272728 0.472382
vt 0.954545 0.078731
vt 0.136365 0.078731
vt 0.318182 0.078731
vt 0.227273 0.078731
vt 0.181819 0.157461
vt 0.363637 0.157461
vt 0.500000 0.078731
vt 0.409092 0.078731
vt 0.772727 0.078731
vt 0.863636 0.078731
vt 0.909091 0.157461
vt 0.590909 0.078731
vt 0.681818 0.078731
vt 0.727273 0.157461
vt 0.545455 0.157461
vt 0.318182 0.236191
vt 0.409092 0.236191
vt 0.136365 0.236191
vt 0.227273 0.236191
vt 0.863636 0.236191
vt 0.045455 0.236191
vt 0.954545 0.236191
vt 0.681818 0.236191
vt 0.772727 0.236191
vt 0.500000 0.236191
vt 0.590909 0.236191
vt 0.272728 0.314921
vt 0.090910 0.314921
vt 0.818182 0.314921
vt 0.636364 0.314921
vt 0.454546 0.314921
vt 0.136365 0.393651
vt 0.227273 0.393651
vt 0.409092 0.393651
vt 0.318182 0.393651
vt 0.863636 0.393651
vt 0.045455 0.393651
vt 0.681818 0.393651
vt 0.772727 0.393651
vt 0.500000 0.393651
vt 0.590909 0.393651
s 0
f 34/66/34 47/91/34 46/89/34
f 35/71/35 47/90/35 49/93/35
f 34/67/36 46/88/36 51/97/36
f 34/68/37 51/96/37 53/100/37
f 34/69/38 53/99/38 50/94/38
f 35/71/39 49/93/39 56/103/39
f 36/73/40 48/92/40 58/105/40
f 37/74/41 52/98/41 60/107/41
f 38/75/42 54/101/42 62/110/42
f 39/76/43 55/102/43 64/112/43
f 35/71/44 56/103/44 59/106/44
f 36/73/45 58/105/45 61/108/45
f 37/74/46 60/107/46 63/111/46
f 38/75/47 62/110/47 65/113/47
f 39/76/48 64/112/48 57/104/48
f 40/77/49 66/114/49 71/120/49
f 41/78/50 67/115/50 73/124/50
f 42/80/51 68/116/51 74/126/51
f 43/81/52 69/117/52 75/128/52
f 44/82/53 70/118/53 72/121/53
f 72/121/54 75/127/54 45/83/54
f 72/121/55 70/118/55 75/127/55
f 70/118/56 43/81/56 75/127/56
f 75/128/57 74/125/57 45/84/57
f 75/128/58 69/117/58 74/125/58
f 69/117/59 42/80/59 74/125/59
f 74/126/60 73/123/60 45/85/60
f 74/126/61 68/116/61 73/123/61
f 68/116/62 41/79/62 73/123/62
f 73/124/63 71/119/63 45/86/63
f 73/124/64 67/115/64 71/119/64
f 67/115/65 40/77/65 71/119/65
f 71/120/66 72/122/66 45/87/66
f 71/120/67 66/114/67 72/122/67
f 66/114/68 44/82/68 72/122/68
f 57/104/69 70/118/69 44/82/69
f 57/104/70 64/112/70 70/118/70
f 64/112/71 43/81/71 70/118/71
f 65/113/72 69/117/72 43/81/72
f 65/113/73 62/110/73 69/117/73
f 62/110/74 42/80/74 69/117/74
f 63/111/75 68/116/75 42/80/75
f 63/111/76 60/107/76 68/116/76
f 60/107/77 41/79/77 68/116/77
f 61/108/78 67/115/78 41/78/78
f 61/108/79 58/105/79 67/115/79
f 58/105/80 40/77/80 67/115/80
f 59/106/81 66/114/81 40/77/81
f 59/106/82 56/103/82 66/114/82
f 56/103/83 44/82/83 66/114/83
f 64/112/84 65/113/84 43/81/84
f 64/112/85 55/102/85 65/113/85
f 55/102/86 38/75/86 65/113/86
f 62/110/87 63/111/87 42/80/87
f 62/110/88 54/101/88 63/111/88
f 54/101/89 37/74/89 63/111/89
f 60/107/90 61/109/90 41/79/90
f 60/107/91 52/98/91 61/109/91
f 52/98/92 36/72/92 61/109/92
f 58/105/93 59/106/93 40/77/93
f 58/105/94 48/92/94 59/106/94
f 48/92/95 35/71/95 59/106/95
f 56/103/96 57/104/96 44/82/96
f 56/103/97 49/93/97 57/104/97
f 49/93/98 39/76/98 57/104/98
f 50/94/99 55/102/99 39/76/99
f 50/94/100 53/99/100 55/102/100
f 53/99/101 38/75/101 55/102/101
f 53/100/102 54/101/102 38/75/102
f 53/100/103 51/96/103 54/101/103
f 51/96/104 37/74/104 54/101/104
f 51/97/105 52/98/105 37/74/105
f 51/97/106 46/88/106 52/98/106
f 46/88/107 36/72/107 52/98/107
f 49/93/108 50/95/108 39/76/108
f 49/93/109 47/90/109 50/95/109
f 47/90/110 34/70/110 50/95/110
f 46/89/111 48/92/111 36/73/111
f 46/89/112 47/91/112 48/92/112
f 47/91/113 35/71/113 48/92/113
o Cubo.004
v 0.052597 0.262961 0.100466
v 0.151442 0.614790 0.100466
v 0.052597 0.262961 0.042637
v 0.151442 0.614790 0.042637
v 0.108271 0.247320 0.100466
v 0.207116 0.599149 0.100466
v 0.108271 0.247320 0.042637
v 0.207116 0.599149 0.042637
vn -0.9627 0.2705 -0.0000
vn -0.0000 -0.0000 -1.0000
vn 0.9627 -0.2705 -0.0000
vn -0.0000 -0.0000 1.0000
vn -0.2705 -0.9627 -0.0000
vn 0.2705 0.9627 -0.0000
vt 0.375000 0.000000
vt 0.375000 1.000000
vt 0.125000 0.750000
vt 0.625000 0.000000
vt 0.625000 1.000000
vt 0.875000 0.750000
vt 0.375000 0.250000
vt 0.125000 0.500000
vt 0.625000 0.250000
vt 0.875000 0.500000
vt 0.375000 0.750000
vt 0.625000 0.750000
vt 0.375000 0.500000
vt 0.625000 0.500000
s 0
f 76/129/114 77/132/114 79/137/114 78/135/114
f 78/135/115 79/137/115 83/142/115 82/141/115
f 82/141/116 83/142/116 81/140/116 80/139/116
f 80/139/117 81/140/117 77/133/117 76/130/117
f 78/136/118 82/141/118 80/139/118 76/131/118
f 83/142/119 79/138/119 77/134/119 81/140/119
